<svg version="1" xmlns="http://www.w3.org/2000/svg" width="922.667" height="922.667" viewBox="0 0 692.000000 692.000000"><path d="M550.7 15.6c-.1.1-2.2.5-4.7.8-6.2.8-14.3 5-17.2 8.9-8.6 11.3-5.5 29 6.7 37.7 4.1 3 4.3 3.6 1.2 4.4-4 1-10.3 8.1-11.6 13-2.6 10.3-.5 19.9 6 26.7 2.1 2.3 3.9 4.3 3.9 4.5 0 .2-2 .4-4.4.4-5 0-5.2.4-5.1 7.4v5h36.4c19.9.1 36.7-.2 37.2-.5 1.2-.7 1.8-8.9.6-8.9-.4 0-.6-.4-.2-.9 1-1.8-1.6-2.3-11.3-2.2-15.8.2-17.3.1-18.3-.5-.5-.3-.9 0-.9.6s-.4.9-.9.5c-.5-.3-4.9-.7-9.8-.9-12.8-.5-19.6-4.4-22.6-13.1-2.9-8.3 0-16.5 6.8-20 3.7-1.8 6.2-1.9 30.6-2h26.6l.2-4.4c.1-2.5.4-4.8.7-5.2.2-.4 0-1-.6-1.4-.6-.4-.8-.9-.6-1.3.2-.4-10.9-.7-24.7-.7-25 0-25.2 0-29.7-2.5-4.9-2.7-9.6-8.9-10-12.9-.8-10.5.8-14.2 7.6-17.6 3.5-1.8 6.2-2 23.9-2.2 11-.2 22.3-.3 25.1-.4 2.8-.1 5.6.1 6.2.5 2 1.2 2.8-2.8 2-10.4l-.3-2.5h-24.3c-13.4 0-24.4.1-24.5.1zM3 61.7c-.8.3-1.8 1.1-2.2 1.7-1 1.4-1 579.8 0 581.3s5.6 2.6 8 1.9c1-.4 2.4-1.8 3-3.2.9-1.9 1.2-75.3 1.2-290.3V65.3l-2.3-2.1C8.4 61 6 60.6 3 61.7zM105.1 186.5c0 50.9-.2 54.5-4 58.8-2.2 2.6-7.8 4.7-12.8 5-2.4.1-4.3.6-4.4 1.2-.1 1.3-.1 14.4 0 17.4.1 2.3.2 2.3 8.9 1.8 4.8-.3 9.8-.8 11.2-1.1 16-3.5 25.9-14.3 27.7-30.2.4-3.8.8-28.3.7-54.4v-47.5l-13.7-.3-13.6-.3v49.6zM348.5 152.2v11.2l-6.2-.2-6.3-.2v8.5c0 5.3.4 8.6 1.2 9.1.6.4 3.4.8 6.2.8l5.1.1.1 19.5c0 10.7.4 21.3.8 23.5 1.2 6.7 5 12 10.3 14.6 4.4 2.1 6.1 2.3 21.3 2.3l16.5.1-.1-8.2c0-4.6-.3-8.5-.6-8.9-.4-.3-4.1-.6-8.5-.6-10.4 0-13.1-1-13.9-5.6-.6-3-.8-17.1-.5-33l.1-4.3 9.3.1c5 .1 10.8.1 12.8.1l3.6-.1V163.3l-11.6-.1c-6.4 0-12.3-.1-13.1-.1-1.3-.1-1.5-1.9-1.3-11.1l.2-11h-25.4v11.2zM549 145.6c-9.5 2.5-19.2 9.7-20.6 15.1-.4 1.3-1 2.3-1.4 2.3-.8 0-1.2 1.5-2.5 8-1.7 8.4.1 19.2 4.2 25.5 6.9 10.6 17.6 15.5 34.2 15.6 25.6.3 40.1-13.7 38.7-37-.9-13.3-8.1-23.3-20.3-28.1-7.4-2.9-24-3.6-32.3-1.4zm29.3 14.2c4.3 1.9 11.6 8.1 11.8 10 0 .4.3 1.6.6 2.7 1.2 5.1 0 15.5-1.8 15.5-.5 0-.9.6-.9 1.2-.1 2.2-7.1 6.8-12.9 8.5-4.7 1.3-17.2 1.9-22.1 1-3.8-.7-12.8-5.9-14.7-8.5-5.6-7.6-4.8-20.5 1.7-26 2.1-1.7 11-6.4 11-5.7 0 .3.8.2 1.7-.4 1-.5 6-.8 11.3-.7 7.3.1 10.6.7 14.3 2.4zM274.8 163.2c-13 3.3-19.1 10.8-18.9 23.3.1 9.4 3.7 15.7 11.1 19.5 5.3 2.7 10.3 3.9 22.5 5.5 1.7.2 3 .4 3 .5 0 .1 1.6.4 3.5.7 4.7.6 7 2.9 7 6.9 0 5.3-3.4 6.9-15 7.1-6.1.2-11.5-.3-15-1.3-3-.8-6.2-1.7-7-1.9-.8-.2-3.2-1.1-5.2-1.9L257 220v9.4c0 10.9-1.1 9.9 13.5 12.7 7.3 1.3 13.3 1.7 22 1.5 13.3-.4 14-.5 20.8-3.5 11.6-5 16.4-16.4 12.7-30.1-2.4-9-12.1-14.5-29-16.6-1.9-.2-5.1-.7-7-1-1.9-.3-4.2-.7-5.1-.8-3.5-.4-6.9-3.6-6.7-6.1.4-4.9 3.9-6.8 12.8-7 4.5-.1 10 .2 12.3.7 2.3.5 5.2 1.2 6.5 1.4 1.3.3 4.6 1.3 7.3 2.3l4.9 1.9v-19.5l-3.7-.7c-2.1-.4-6.5-1.2-9.8-1.7-10.4-1.9-25.7-1.8-33.7.3zM157.3 192.9c.2 16.3.6 30.6.9 31.8 1.9 6.6 7.4 13.5 13.2 16.5 3.3 1.8 5.9 2.2 13.1 2.2 7.8 0 9.7-.3 14.1-2.6 2.8-1.5 6.7-4.3 8.7-6.3l3.7-3.7V242h12.5c12.3 0 12.5 0 12.6-2.3.1-2.9.1-73.9 0-75.3-.1-.8-3.9-1.2-12.6-1.1H211l-.1 21.4c-.2 24.8-.1 23.7-1.8 28.7-3.3 9.6-12.8 14.2-20.6 10-5.6-3-5.9-4.4-6.1-32.9-.2-14.3-.3-26.3-.3-26.7-.1-.3-5.8-.6-12.7-.6h-12.5l.4 29.7zM527.5 230.9c-1.1 2.4-1.8 4.7-2.9 10.7-2 10.6.1 22.1 5.6 30.9 3.1 4.8 14.1 12.5 18 12.5.9 0 1.9.4 2.2.8.8 1.3 17.3 1.4 23.4.1 7.3-1.5 12.3-4 17.7-9 3.7-3.4 7.2-8.8 8.2-12.4 1.9-7.3 2.2-10.6 1.9-16.8-.5-7.9-.8-9.3-2.9-15.2-1.4-4-1.4-4-6.9-4.1l-5.6-.1 2.4 6.3c9.5 25.3-5.5 43-33 39-2.7-.4-5.9-1.2-7-1.9-1.2-.6-2.3-1.2-2.6-1.2-2-.2-7.1-5.5-9.1-9.3-3.3-6.7-3.2-18.3.3-26.8l2.4-6.1h-5.3c-4.8.1-5.6.4-6.8 2.6zM203.2 293c-.4.3-.7 4.9-.8 10.2v9.8h25.4l-.1-10.2-.2-10.2-11.8-.1c-6.5 0-12.1.2-12.5.5zM408.6 293c-.2.3-.3 9.4-.2 20.3 0 11-.2 20.1-.6 20.3-.4.3-1.2-.4-1.7-1.5-1.5-2.6-10.9-8.7-15.1-9.6-5.2-1.2-12.1-1.3-15.5-.3-1.6.5-3.4 1-4 1.2-5 1.2-12.1 7.4-15.9 13.8-4.3 7.5-5.8 12.8-6.2 22.8-.5 14.6 2.9 25.7 10.3 33.6 6.7 7.3 10.4 9.1 20.6 10.1 9.4.9 16.6-1.7 24-8.6 2-1.9 3.7-3.2 3.8-2.8 0 .4.2 2.6.2 4.9l.2 4.3h25v-54.3c.1-48.1-.1-54.2-1.5-54.3-5.5-.4-23.2-.4-23.4.1zm-6.7 50.3c4.1 3.8 6.5 11.4 6.3 20.7-.2 13.9-7.4 22.6-18 21.5-5.3-.5-7.5-1.7-10.6-5.8-3.1-4.1-3.9-7.3-4-17.2-.1-9.8 2.2-16.5 6.6-19.7 5.9-4.2 14.7-3.9 19.7.5zM105.1 349.5V402h13.3c11.9 0 13.4-.2 13.7-1.8.2-.9.4-10.8.3-22 0-11.1.2-20.3.5-20.3.3-.1 9.8-.3 21.1-.4 11.3-.2 20.7-.3 21-.4.3 0 .6-4.6.5-10.1v-10h-43.1v-9.8l.1-9.7h22.8c22 0 22.7-.1 22.8-2 0-1.1.1-5.6.2-10l.1-8-36.7-.3-36.6-.2v52.5zM583.3 310.6c-.2.6-.3 3.8-.1 7l.3 5.9h8.3c8.1 0 8.2 0 8.3-2.5.1-1.4 0-3-.1-3.5-.1-.6-.2-2.6-.1-4.6l.1-3.5h-8.1c-5.2 0-8.3.4-8.6 1.2zM296.5 322c-4.5 1-9.4 3.7-14.9 8.3l-4.8 4 .3-5.6.4-5.6-12.8.1-12.9.1.4 5.9c.2 3.2 0 5.9-.3 6.1-.4.1-.4 2.2 0 4.7s.4 5.8.1 7.5c-.3 1.6-.3 4.9.1 7.2.3 2.3.2 4.4-.2 4.5-.4.2-.4 2.3 0 4.8s.4 5.8.1 7.5c-.3 1.6-.3 4.9.1 7.2.3 2.3.2 4.4-.2 4.5-.4.2-.4 2.3 0 4.8s.4 5.8.1 7.5c-1.2 6-.2 6.5 13 6.5 8.9 0 12-.3 12-1.3.1-.6.2-11.3.4-23.7.2-23.3.5-24.6 4.9-31.1 3-4.5 11.1-6.6 16.4-4.4 6.4 2.7 6.8 4.3 7 31 .1 13.2.2 25.2.3 26.7v2.8h25l.1-3.3c.2-9.1-.1-52.4-.4-53.7-4-16.5-11.3-22.9-26.7-23.5-2.5-.1-5.8.1-7.5.5zM202.7 323.9c-.2.3-.3 17.9-.3 39.1l.1 38.5 12.6.3 12.6.3v-78.8h-12.4c-6.8 0-12.5.2-12.6.6zM294.1 453c-.4.3-.8 24.9-.8 54.7l.1 54.2 12.5-.2 12.5-.2.2-22c.1-24.3.8-28.7 5.5-34 5.8-6.5 16.8-6.7 20.8-.4 1.9 3.2 2.1 6.6 2.2 32.7l.1 24.3 12.7-.3 12.6-.3v-26c.1-14.3-.3-28.3-.8-31-1-5.9-4.9-14.1-8-16.8-7.8-6.7-22.1-8.2-32.1-3.3-3 1.5-7.2 4.3-9.1 6.2-1.9 1.9-3.6 3.4-3.8 3.4-.1 0-.2-9.3-.2-20.7v-20.8h-11.8c-6.5 0-12.1.2-12.6.5zM594.4 452.9c-.2.2-.4 24.9-.4 54.8V562h25l.1-3.3c.1-4.2.1-99.3 0-103.2l-.1-3h-12.1c-6.6 0-12.3.2-12.5.4zM126.5 456.9c-11.3 3.2-17.9 8.4-21.8 17.1-3.1 6.8-2.8 21.2.4 27.1 5.6 10.1 15.9 15.5 37.2 19.4 5.9 1.1 12.3 3.9 14.6 6.3 1.9 2.1 2.2 3.3 1.8 6.8-.2 2.4-1.1 4.9-1.9 5.7-2.7 2.7-8.1 4.9-11 4.5-1.6-.3-3.1-.2-3.3.2-.6 1-7.7.3-15.5-1.5-9.3-2.1-9-2-16.5-5.4-3.7-1.7-6.9-3.1-7.1-3.1-.2 0-.3 5.1-.2 11.4l.1 11.4 4.1 1.3c4.5 1.4 5.2 1.6 8.1 2.3 1.1.2 4.3 1 7 1.6 7 1.7 26.8 2.2 34.5.9 13.3-2.3 21.9-8.7 25.9-19.2 1.6-4.5 2-7.5 1.8-15-.1-5.7-.7-10-1.4-10.9-.7-.8-1-1.7-.7-2 .3-.3-1.7-2.8-4.4-5.5-7-7.1-12.3-9-40.3-14.8-3.8-.8-8.8-3.5-9.8-5.3-1.7-3.2-1.3-7.7.8-10.4 5.1-6.4 24.6-6.4 42.6.1 3.2 1.1 6.2 2.1 6.5 2.1.7 0 .5-20.9-.3-21.6-.5-.5-8-2.2-17.7-3.9-8.4-1.5-27.4-1.3-33.5.4zM234.8 482.6c-12.1 2.3-21.9 8.7-27.4 18.1-4.6 7.8-6.7 20.3-4.9 29.3.3 1.4.8 3.8 1.1 5.5.9 4.9 4.6 11.6 9.1 16.1 9.3 9.5 23.9 13.7 41.3 12 5.9-.6 6.1-.7 13.1-2.5l4.5-1.2v-10c-.1-5.4-.3-9.9-.5-9.9s-2.9 1.2-6 2.7c-4.6 2.2-7 2.7-13.6 2.7-10.6.1-15-1.8-19.4-8.5-2.7-4.2-3.2-6-3.5-12.1-.7-15.5 6.5-24.5 20.2-25.2 5.7-.3 13.9 1.5 17.7 3.8 5 3.1 5 3 4.9-7.3-.1-5.3-.2-9.9-.3-10.2-.1-.7-6.3-2.5-12.1-3.5-7.4-1.2-17.1-1.1-24.2.2zM426.8 481.6c-.2.1-2.3.5-4.7.9-14.3 2.1-24.5 10.7-29.8 24.9-2 5.2-2.4 21.5-.8 27.7 3.9 14.7 15 25 30.1 27.8 7.1 1.4 21.1 1 26.3-.6 2.5-.8 5.1-1.6 5.6-1.7 5.3-1.2 15.1-9.9 18.4-16.4 7.1-13.8 5.9-35.9-2.6-47.1-4.7-6.2-12.3-11.5-20.1-13.7-4.4-1.3-21.6-2.7-22.4-1.8zm14.3 19.8c7.9 3.8 11.5 18.7 7.8 32.3-2.2 8.1-8.5 12.5-17.2 11.9-9.3-.5-14.6-7.8-15.1-20.7-.7-16.4 5.4-25.6 16.7-25.4 2.3.1 5.8.9 7.8 1.9zM520.3 482.6c-16.1 3.3-26.7 13.6-30.2 29.4-1.4 6.4-.7 20.6 1.4 26.5 5.7 16.4 21 25.9 41 25.5 14.3-.3 24.2-3.8 31.8-11.2 7.9-7.9 11.5-17.9 11.2-31.3-.4-12.5-4.5-23.2-11.4-29.3-3.2-2.8-12.1-8.4-12.1-7.6 0 .4-.7.1-1.5-.6s-1.5-1-1.5-.6c0 .3-1.2.1-2.7-.5-4.1-1.6-18.8-1.7-26-.3zm21.3 19.6c5.1 3.5 7.5 10.1 7.6 20.8 0 4.9-.4 9.5-.8 10.2-.5.7-.9 1.8-1 2.5-.4 2.6-4.5 7.1-7.8 8.7-6.3 3-14.9 1.4-19-3.5-5.9-7-6.9-23.2-2-33.5 3.7-7.7 15.4-10.4 23-5.2z"/></svg>